# Blender v2.79 (sub 0) OBJ File: 'plane.blend'
# www.blender.org
mtllib plane.mtl
o Plane
v -7.915536 0.000000 7.915536
v 7.915536 0.000000 7.915536
v -7.915536 0.000000 -7.915536
v 7.915536 0.000000 -7.915536
v -7.915536 0.434170 7.915536
v 7.915536 0.434170 7.915536
v -7.915536 0.434170 -7.915536
v 7.915536 0.434170 -7.915536
vt 0.000100 0.000100
vt 0.000100 0.999900
vt 0.999900 0.999900
vt 0.999900 0.000100
vt 0.000100 0.000100
vt 0.999900 0.000100
vt 0.999900 0.999900
vt 0.000100 0.999900
vn 0.0000 -1.0000 0.0000
vn 0.0000 1.0000 0.0000
vn 1.0000 0.0000 0.0000
vn -1.0000 0.0000 0.0000
vn 0.0000 0.0000 -1.0000
vn 0.0000 0.0000 1.0000
usemtl None
s off
f 1/1/1 3/2/1 4/3/1 2/4/1
f 5/5/2 6/6/2 8/7/2 7/8/2
f 2/4/3 4/3/3 8/7/3 6/6/3
f 3/2/4 1/1/4 5/5/4 7/8/4
f 4/3/5 3/2/5 7/8/5 8/7/5
f 1/1/6 2/4/6 6/6/6 5/5/6
